<svg xmlns="http://www.w3.org/2000/svg" version="1.1" xmlns:xlink="http://www.w3.org/1999/xlink" xmlns:svgjs="http://svgjs.dev/svgjs" width="1000" height="1000"><style>
    #light-icon {
      display: inline;
    }
    #dark-icon {
      display: none;
    }

    @media (prefers-color-scheme: dark) {
      #light-icon {
        display: none;
      }
      #dark-icon {
        display: inline;
      }
    }
  </style><g id="light-icon"><svg xmlns="http://www.w3.org/2000/svg" version="1.1" xmlns:xlink="http://www.w3.org/1999/xlink" xmlns:svgjs="http://svgjs.dev/svgjs" width="1000" height="1000"><g><g transform="matrix(0.6666666666666666,0,0,0.6666666666666666,0,363.6666666666667)"><svg xmlns="http://www.w3.org/2000/svg" version="1.1" xmlns:xlink="http://www.w3.org/1999/xlink" xmlns:svgjs="http://svgjs.dev/svgjs" width="1500" height="409"><svg xmlns="http://www.w3.org/2000/svg" version="1.1" xmlns:xlink="http://www.w3.org/1999/xlink" xmlns:svgjs="http://svgjs.dev/svgjs" width="1500" height="409" viewBox="0 0 1500 409"><g transform="matrix(1,0,0,1,-0.9090909090909918,-1.1000352599542964)"><svg viewBox="0 0 396 108" data-background-color="#ffffff" preserveAspectRatio="xMidYMid meet" height="409" width="1500" xmlns="http://www.w3.org/2000/svg" xmlns:xlink="http://www.w3.org/1999/xlink"><g id="tight-bounds" transform="matrix(1,0,0,1,0.2400000000000091,0.29047385837424144)"><svg viewBox="0 0 395.52 107.41905228325152" height="107.41905228325152" width="395.52"><g><svg viewBox="0 0 655.6226799422188 178.06019148159052" height="107.41905228325152" width="395.52"><g><rect width="7.40206490210095" height="178.06019148159052" x="233.3234817885448" y="0" fill="#199515" opacity="1" stroke-width="0" stroke="transparent" fill-opacity="1" class="rect-yte-0" data-fill-palette-color="primary" rx="1%" id="yte-0" data-palette-color="#199515"></rect></g><g transform="matrix(1,0,0,1,260.1026799422189,0.44293579970543817)"><svg viewBox="0 0 395.5199999999999 177.17431988217965" height="177.17431988217965" width="395.5199999999999"><g id="textblocktransform"><svg viewBox="0 0 395.5199999999999 177.17431988217965" height="177.17431988217965" width="395.5199999999999" id="textblock"><g><svg viewBox="0 0 395.5199999999999 177.17431988217965" height="177.17431988217965" width="395.5199999999999"><g transform="matrix(1,0,0,1,0,0)"><svg width="395.5199999999999" viewBox="2.3399999999999976 -37.84 183.23 78.68" height="177.17431988217965" data-palette-color="#199515"><svg></svg><svg></svg><g class="wordmark-text-0" data-fill-palette-color="primary" id="text-0"><path d="M38.23-17.5v14.3c0 0.46-0.08 0.883-0.24 1.27-0.167 0.393-0.39 0.73-0.67 1.01-0.287 0.287-0.627 0.513-1.02 0.68-0.387 0.16-0.81 0.24-1.27 0.24v0h-22.9c-0.587 0-1.217-0.07-1.89-0.21-0.673-0.14-1.34-0.353-2-0.64-0.66-0.293-1.29-0.673-1.89-1.14-0.607-0.467-1.14-1.027-1.6-1.68-0.467-0.66-0.837-1.427-1.11-2.3-0.28-0.873-0.42-1.853-0.42-2.94v0-17.19c0-0.587 0.07-1.217 0.21-1.89 0.14-0.673 0.357-1.34 0.65-2 0.293-0.66 0.673-1.29 1.14-1.89 0.473-0.607 1.04-1.14 1.7-1.6 0.66-0.467 1.42-0.837 2.28-1.11 0.867-0.28 1.843-0.42 2.93-0.42v0h25.81v6.35h-25.81c-0.827 0-1.46 0.22-1.9 0.66-0.44 0.44-0.66 1.09-0.66 1.95v0 17.14c0 0.813 0.223 1.443 0.67 1.89 0.447 0.447 1.077 0.67 1.89 0.67v0h19.75v-7.96h-16.89v-6.39h20.04c0.46 0 0.883 0.083 1.27 0.25 0.393 0.173 0.733 0.407 1.02 0.7 0.28 0.293 0.503 0.63 0.67 1.01 0.16 0.387 0.24 0.8 0.24 1.24zM67.24-26.39v6.35h-14.29c-0.86 0-1.51 0.213-1.95 0.64-0.44 0.433-0.66 1.067-0.66 1.9v0 17.5h-6.35v-17.5c0-1.093 0.14-2.07 0.42-2.93 0.273-0.867 0.643-1.63 1.11-2.29 0.467-0.66 1-1.22 1.6-1.68 0.6-0.467 1.23-0.847 1.89-1.14 0.66-0.293 1.327-0.507 2-0.64 0.68-0.14 1.313-0.21 1.9-0.21v0zM96.61-17.65v8.91c0 0.88-0.157 1.827-0.47 2.84-0.307 1.02-0.807 1.967-1.5 2.84-0.693 0.867-1.597 1.593-2.71 2.18-1.113 0.587-2.467 0.88-4.06 0.88v0h-11.45c-0.88 0-1.83-0.153-2.85-0.46-1.013-0.313-1.957-0.817-2.83-1.51-0.873-0.687-1.603-1.59-2.19-2.71-0.58-1.113-0.87-2.467-0.87-4.06v0c0-0.88 0.153-1.833 0.46-2.86 0.307-1.02 0.807-1.967 1.5-2.84 0.693-0.873 1.597-1.603 2.71-2.19 1.113-0.58 2.47-0.87 4.07-0.87v0h11.45v6.05h-11.45c-0.867 0-1.537 0.263-2.01 0.79-0.467 0.533-0.7 1.19-0.7 1.97v0c0 0.827 0.27 1.473 0.81 1.94 0.547 0.467 1.193 0.7 1.94 0.7v0h11.41c0.86 0 1.527-0.263 2-0.79 0.473-0.52 0.71-1.17 0.71-1.95v0-8.86c0-0.833-0.257-1.493-0.77-1.98-0.513-0.487-1.16-0.73-1.94-0.73v0h-13.94v-6.03h13.94c0.873 0 1.82 0.153 2.84 0.46 1.02 0.313 1.963 0.813 2.83 1.5 0.873 0.693 1.603 1.597 2.19 2.71 0.587 1.12 0.88 2.477 0.88 4.07zM130.42-17.65v0c0 0.88-0.153 1.827-0.46 2.84-0.313 1.02-0.817 1.963-1.51 2.83-0.687 0.873-1.59 1.603-2.71 2.19-1.113 0.587-2.467 0.88-4.06 0.88v0h-11.45v-6.03h11.45c0.86 0 1.527-0.263 2-0.79 0.473-0.533 0.71-1.19 0.71-1.97v0c0-0.833-0.263-1.483-0.79-1.95-0.533-0.473-1.173-0.71-1.92-0.71v0h-11.45c-0.86 0-1.527 0.263-2 0.79-0.473 0.533-0.71 1.19-0.71 1.97v0 8.86c0 0.847 0.263 1.507 0.79 1.98 0.533 0.473 1.19 0.71 1.97 0.71v0h11.4v6.05h-11.45c-0.88 0-1.827-0.153-2.84-0.46-1.02-0.313-1.967-0.817-2.84-1.51-0.867-0.687-1.593-1.59-2.18-2.71-0.587-1.113-0.88-2.467-0.88-4.06v0-8.91c0-0.88 0.153-1.83 0.46-2.85 0.313-1.013 0.813-1.957 1.5-2.83 0.693-0.867 1.597-1.593 2.71-2.18 1.12-0.587 2.477-0.88 4.07-0.88v0h11.45c0.88 0 1.827 0.153 2.84 0.46 1.02 0.313 1.967 0.813 2.84 1.5 0.867 0.693 1.593 1.597 2.18 2.71 0.587 1.12 0.88 2.477 0.88 4.07zM158.06-26.39v6.35h-14.36v-6.35zM158.06-37.84v6.35h-14.31c-0.86 0-1.51 0.213-1.95 0.64-0.44 0.433-0.66 1.063-0.66 1.89v0 28.96h-6.35v-28.96c0-1.087 0.14-2.06 0.42-2.92 0.273-0.867 0.643-1.63 1.11-2.29 0.46-0.66 0.993-1.22 1.6-1.68 0.6-0.467 1.23-0.847 1.89-1.14 0.66-0.293 1.323-0.507 1.99-0.64 0.667-0.14 1.3-0.21 1.9-0.21v0zM185.57-26.39v6.35h-14.35v-6.35zM185.57-37.84v6.35h-14.31c-0.86 0-1.51 0.213-1.95 0.64-0.44 0.433-0.66 1.063-0.66 1.89v0 28.96h-6.35v-28.96c0-1.087 0.14-2.06 0.42-2.92 0.273-0.867 0.643-1.63 1.11-2.29 0.467-0.66 1-1.22 1.6-1.68 0.6-0.467 1.23-0.847 1.89-1.14 0.66-0.293 1.323-0.507 1.99-0.64 0.667-0.14 1.303-0.21 1.91-0.21v0z" fill="#199515" fill-rule="nonzero" stroke="none" stroke-width="1" stroke-linecap="butt" stroke-linejoin="miter" stroke-miterlimit="10" stroke-dasharray="" stroke-dashoffset="0" font-family="none" font-weight="none" font-size="none" text-anchor="none" style="mix-blend-mode: normal" data-fill-palette-color="primary" opacity="1"></path><path transform="translate(0,40.84)" d="M37.33-10.3v0c0 1.253-0.16 2.38-0.48 3.38-0.313 1-0.73 1.883-1.25 2.65-0.527 0.76-1.14 1.41-1.84 1.95-0.7 0.54-1.423 0.98-2.17 1.32-0.747 0.34-1.507 0.593-2.28 0.76-0.773 0.16-1.503 0.24-2.19 0.24v0h-24.48v-6.35h24.48c1.227 0 2.177-0.357 2.85-1.07 0.673-0.72 1.01-1.68 1.01-2.88v0c0-0.587-0.09-1.123-0.27-1.61-0.18-0.493-0.437-0.917-0.77-1.27-0.333-0.36-0.74-0.637-1.22-0.83-0.48-0.2-1.013-0.3-1.6-0.3v0h-14.6c-1.02 0-2.127-0.183-3.32-0.55-1.187-0.367-2.287-0.957-3.3-1.77-1.02-0.813-1.867-1.877-2.54-3.19-0.68-1.32-1.02-2.933-1.02-4.84v0c0-1.9 0.34-3.507 1.02-4.82 0.673-1.313 1.52-2.38 2.54-3.2 1.013-0.82 2.113-1.413 3.3-1.78 1.193-0.367 2.3-0.55 3.32-0.55v0h21.61v6.35h-21.61c-1.2 0-2.14 0.367-2.82 1.1-0.673 0.733-1.01 1.7-1.01 2.9v0c0 1.22 0.337 2.183 1.01 2.89 0.68 0.713 1.62 1.07 2.82 1.07v0h14.6 0.05c0.687 0.013 1.413 0.107 2.18 0.28 0.76 0.167 1.52 0.43 2.28 0.79 0.753 0.36 1.473 0.813 2.16 1.36 0.68 0.54 1.287 1.193 1.82 1.96 0.527 0.767 0.947 1.647 1.26 2.64 0.307 0.993 0.46 2.117 0.46 3.37zM70.61-17.5v8.59c0 1.087-0.14 2.067-0.42 2.94-0.273 0.873-0.64 1.64-1.1 2.3-0.453 0.653-0.983 1.213-1.59 1.68-0.6 0.467-1.23 0.847-1.89 1.14-0.66 0.287-1.327 0.5-2 0.64-0.673 0.14-1.313 0.21-1.92 0.21v0h-11.45c-0.873 0-1.833-0.153-2.88-0.46-1.04-0.313-2.003-0.823-2.89-1.53-0.887-0.707-1.627-1.627-2.22-2.76-0.593-1.133-0.89-2.52-0.89-4.16v0-8.59c0-1.633 0.297-3.013 0.89-4.14 0.593-1.133 1.333-2.053 2.22-2.76 0.887-0.707 1.85-1.217 2.89-1.53 1.047-0.307 2.007-0.46 2.88-0.46v0h11.45c1.633 0 3.017 0.293 4.15 0.88 1.14 0.587 2.06 1.323 2.76 2.21 0.7 0.887 1.21 1.85 1.53 2.89 0.32 1.04 0.48 2.01 0.48 2.91zM64.26-8.91v-8.55c0-0.873-0.22-1.523-0.66-1.95-0.44-0.42-1.077-0.63-1.91-0.63v0h-11.4c-0.847 0-1.49 0.213-1.93 0.64-0.433 0.433-0.65 1.067-0.65 1.9v0 8.59c0 0.827 0.217 1.46 0.65 1.9 0.44 0.44 1.083 0.66 1.93 0.66v0h11.4c0.867 0 1.51-0.22 1.93-0.66 0.427-0.44 0.64-1.073 0.64-1.9zM99.37-26.39v6.35h-14.36v-6.35zM99.37-37.84v6.35h-14.31c-0.867 0-1.517 0.213-1.95 0.64-0.44 0.433-0.66 1.063-0.66 1.89v0 28.96h-6.35v-28.96c0-1.087 0.137-2.06 0.41-2.92 0.28-0.867 0.65-1.63 1.11-2.29 0.467-0.66 1-1.22 1.6-1.68 0.607-0.467 1.24-0.847 1.9-1.14 0.653-0.293 1.317-0.507 1.99-0.64 0.667-0.14 1.3-0.21 1.9-0.21v0zM127.51-26.39v6.35h-11.08v20.04h-6.42v-20.04h-8.25v-6.35h8.25v-8.62h6.42v8.62z" fill="#146c11" fill-rule="nonzero" stroke="none" stroke-width="1" stroke-linecap="butt" stroke-linejoin="miter" stroke-miterlimit="10" stroke-dasharray="" stroke-dashoffset="0" font-family="none" font-weight="none" font-size="none" text-anchor="none" style="mix-blend-mode: normal" data-fill-palette-color="secondary" opacity="1"></path></g></svg></g></svg></g></svg></g></svg></g><g transform="matrix(1,0,0,1,0,0.44293579970543817)"><svg viewBox="0 0 213.94634853697164 177.17431988217965" height="177.17431988217965" width="213.94634853697164"><g><svg xmlns="http://www.w3.org/2000/svg" version="1.1" data-icon="terminal" data-container-transform="translate(0 11)" viewBox="0 11 128 106" x="0" y="0" height="177.17431988217965" width="213.94634853697164" class="icon-icon-0" data-fill-palette-color="accent" id="icon-0"><path d="M1.5 11C0.7 11 0 11.7 0 12.5V115.5C0 116.3 0.7 117 1.5 117H126.5C127.3 117 128 116.3 128 115.5V12.5C128 11.7 127.3 11 126.5 11zM8.094 21L26 31V33L8 43V39L21 32 8 25zM30 39H56V43H30z" fill="#111111" data-fill-palette-color="accent"></path></svg></g></svg></g></svg></g><defs></defs></svg><rect width="395.52" height="107.41905228325152" fill="none" stroke="none" visibility="hidden"></rect></g></svg></g></svg></svg></g></g></svg></g><g id="dark-icon"><svg xmlns="http://www.w3.org/2000/svg" version="1.1" xmlns:xlink="http://www.w3.org/1999/xlink" xmlns:svgjs="http://svgjs.dev/svgjs" width="1000" height="1000"><g clip-path="url(#SvgjsClipPath1032)"><rect width="1000" height="1000" fill="#ffffff"></rect><g transform="matrix(0.4666666666666667,0,0,0.4666666666666667,150,404.56666666666666)"><svg xmlns="http://www.w3.org/2000/svg" version="1.1" xmlns:xlink="http://www.w3.org/1999/xlink" xmlns:svgjs="http://svgjs.dev/svgjs" width="1500" height="409"><svg xmlns="http://www.w3.org/2000/svg" version="1.1" xmlns:xlink="http://www.w3.org/1999/xlink" xmlns:svgjs="http://svgjs.dev/svgjs" width="1500" height="409" viewBox="0 0 1500 409"><g transform="matrix(1,0,0,1,-0.9090909090909918,-1.1000352599542964)"><svg viewBox="0 0 396 108" data-background-color="#ffffff" preserveAspectRatio="xMidYMid meet" height="409" width="1500" xmlns="http://www.w3.org/2000/svg" xmlns:xlink="http://www.w3.org/1999/xlink"><g id="tight-bounds" transform="matrix(1,0,0,1,0.2400000000000091,0.29047385837424144)"><svg viewBox="0 0 395.52 107.41905228325152" height="107.41905228325152" width="395.52"><g><svg viewBox="0 0 655.6226799422188 178.06019148159052" height="107.41905228325152" width="395.52"><g><rect width="7.40206490210095" height="178.06019148159052" x="233.3234817885448" y="0" fill="#199515" opacity="1" stroke-width="0" stroke="transparent" fill-opacity="1" class="rect-yte-0" data-fill-palette-color="primary" rx="1%" id="yte-0" data-palette-color="#199515"></rect></g><g transform="matrix(1,0,0,1,260.1026799422189,0.44293579970543817)"><svg viewBox="0 0 395.5199999999999 177.17431988217965" height="177.17431988217965" width="395.5199999999999"><g id="textblocktransform"><svg viewBox="0 0 395.5199999999999 177.17431988217965" height="177.17431988217965" width="395.5199999999999" id="textblock"><g><svg viewBox="0 0 395.5199999999999 177.17431988217965" height="177.17431988217965" width="395.5199999999999"><g transform="matrix(1,0,0,1,0,0)"><svg width="395.5199999999999" viewBox="2.3399999999999976 -37.84 183.23 78.68" height="177.17431988217965" data-palette-color="#199515"><svg></svg><svg></svg><g class="wordmark-text-0" data-fill-palette-color="primary" id="text-0"><path d="M38.23-17.5v14.3c0 0.46-0.08 0.883-0.24 1.27-0.167 0.393-0.39 0.73-0.67 1.01-0.287 0.287-0.627 0.513-1.02 0.68-0.387 0.16-0.81 0.24-1.27 0.24v0h-22.9c-0.587 0-1.217-0.07-1.89-0.21-0.673-0.14-1.34-0.353-2-0.64-0.66-0.293-1.29-0.673-1.89-1.14-0.607-0.467-1.14-1.027-1.6-1.68-0.467-0.66-0.837-1.427-1.11-2.3-0.28-0.873-0.42-1.853-0.42-2.94v0-17.19c0-0.587 0.07-1.217 0.21-1.89 0.14-0.673 0.357-1.34 0.65-2 0.293-0.66 0.673-1.29 1.14-1.89 0.473-0.607 1.04-1.14 1.7-1.6 0.66-0.467 1.42-0.837 2.28-1.11 0.867-0.28 1.843-0.42 2.93-0.42v0h25.81v6.35h-25.81c-0.827 0-1.46 0.22-1.9 0.66-0.44 0.44-0.66 1.09-0.66 1.95v0 17.14c0 0.813 0.223 1.443 0.67 1.89 0.447 0.447 1.077 0.67 1.89 0.67v0h19.75v-7.96h-16.89v-6.39h20.04c0.46 0 0.883 0.083 1.27 0.25 0.393 0.173 0.733 0.407 1.02 0.7 0.28 0.293 0.503 0.63 0.67 1.01 0.16 0.387 0.24 0.8 0.24 1.24zM67.24-26.39v6.35h-14.29c-0.86 0-1.51 0.213-1.95 0.64-0.44 0.433-0.66 1.067-0.66 1.9v0 17.5h-6.35v-17.5c0-1.093 0.14-2.07 0.42-2.93 0.273-0.867 0.643-1.63 1.11-2.29 0.467-0.66 1-1.22 1.6-1.68 0.6-0.467 1.23-0.847 1.89-1.14 0.66-0.293 1.327-0.507 2-0.64 0.68-0.14 1.313-0.21 1.9-0.21v0zM96.61-17.65v8.91c0 0.88-0.157 1.827-0.47 2.84-0.307 1.02-0.807 1.967-1.5 2.84-0.693 0.867-1.597 1.593-2.71 2.18-1.113 0.587-2.467 0.88-4.06 0.88v0h-11.45c-0.88 0-1.83-0.153-2.85-0.46-1.013-0.313-1.957-0.817-2.83-1.51-0.873-0.687-1.603-1.59-2.19-2.71-0.58-1.113-0.87-2.467-0.87-4.06v0c0-0.88 0.153-1.833 0.46-2.86 0.307-1.02 0.807-1.967 1.5-2.84 0.693-0.873 1.597-1.603 2.71-2.19 1.113-0.58 2.47-0.87 4.07-0.87v0h11.45v6.05h-11.45c-0.867 0-1.537 0.263-2.01 0.79-0.467 0.533-0.7 1.19-0.7 1.97v0c0 0.827 0.27 1.473 0.81 1.94 0.547 0.467 1.193 0.7 1.94 0.7v0h11.41c0.86 0 1.527-0.263 2-0.79 0.473-0.52 0.71-1.17 0.71-1.95v0-8.86c0-0.833-0.257-1.493-0.77-1.98-0.513-0.487-1.16-0.73-1.94-0.73v0h-13.94v-6.03h13.94c0.873 0 1.82 0.153 2.84 0.46 1.02 0.313 1.963 0.813 2.83 1.5 0.873 0.693 1.603 1.597 2.19 2.71 0.587 1.12 0.88 2.477 0.88 4.07zM130.42-17.65v0c0 0.88-0.153 1.827-0.46 2.84-0.313 1.02-0.817 1.963-1.51 2.83-0.687 0.873-1.59 1.603-2.71 2.19-1.113 0.587-2.467 0.88-4.06 0.88v0h-11.45v-6.03h11.45c0.86 0 1.527-0.263 2-0.79 0.473-0.533 0.71-1.19 0.71-1.97v0c0-0.833-0.263-1.483-0.79-1.95-0.533-0.473-1.173-0.71-1.92-0.71v0h-11.45c-0.86 0-1.527 0.263-2 0.79-0.473 0.533-0.71 1.19-0.71 1.97v0 8.86c0 0.847 0.263 1.507 0.79 1.98 0.533 0.473 1.19 0.71 1.97 0.71v0h11.4v6.05h-11.45c-0.88 0-1.827-0.153-2.84-0.46-1.02-0.313-1.967-0.817-2.84-1.51-0.867-0.687-1.593-1.59-2.18-2.71-0.587-1.113-0.88-2.467-0.88-4.06v0-8.91c0-0.88 0.153-1.83 0.46-2.85 0.313-1.013 0.813-1.957 1.5-2.83 0.693-0.867 1.597-1.593 2.71-2.18 1.12-0.587 2.477-0.88 4.07-0.88v0h11.45c0.88 0 1.827 0.153 2.84 0.46 1.02 0.313 1.967 0.813 2.84 1.5 0.867 0.693 1.593 1.597 2.18 2.71 0.587 1.12 0.88 2.477 0.88 4.07zM158.06-26.39v6.35h-14.36v-6.35zM158.06-37.84v6.35h-14.31c-0.86 0-1.51 0.213-1.95 0.64-0.44 0.433-0.66 1.063-0.66 1.89v0 28.96h-6.35v-28.96c0-1.087 0.14-2.06 0.42-2.92 0.273-0.867 0.643-1.63 1.11-2.29 0.46-0.66 0.993-1.22 1.6-1.68 0.6-0.467 1.23-0.847 1.89-1.14 0.66-0.293 1.323-0.507 1.99-0.64 0.667-0.14 1.3-0.21 1.9-0.21v0zM185.57-26.39v6.35h-14.35v-6.35zM185.57-37.84v6.35h-14.31c-0.86 0-1.51 0.213-1.95 0.64-0.44 0.433-0.66 1.063-0.66 1.89v0 28.96h-6.35v-28.96c0-1.087 0.14-2.06 0.42-2.92 0.273-0.867 0.643-1.63 1.11-2.29 0.467-0.66 1-1.22 1.6-1.68 0.6-0.467 1.23-0.847 1.89-1.14 0.66-0.293 1.323-0.507 1.99-0.64 0.667-0.14 1.303-0.21 1.91-0.21v0z" fill="#199515" fill-rule="nonzero" stroke="none" stroke-width="1" stroke-linecap="butt" stroke-linejoin="miter" stroke-miterlimit="10" stroke-dasharray="" stroke-dashoffset="0" font-family="none" font-weight="none" font-size="none" text-anchor="none" style="mix-blend-mode: normal" data-fill-palette-color="primary" opacity="1"></path><path transform="translate(0,40.84)" d="M37.33-10.3v0c0 1.253-0.16 2.38-0.48 3.38-0.313 1-0.73 1.883-1.25 2.65-0.527 0.76-1.14 1.41-1.84 1.95-0.7 0.54-1.423 0.98-2.17 1.32-0.747 0.34-1.507 0.593-2.28 0.76-0.773 0.16-1.503 0.24-2.19 0.24v0h-24.48v-6.35h24.48c1.227 0 2.177-0.357 2.85-1.07 0.673-0.72 1.01-1.68 1.01-2.88v0c0-0.587-0.09-1.123-0.27-1.61-0.18-0.493-0.437-0.917-0.77-1.27-0.333-0.36-0.74-0.637-1.22-0.83-0.48-0.2-1.013-0.3-1.6-0.3v0h-14.6c-1.02 0-2.127-0.183-3.32-0.55-1.187-0.367-2.287-0.957-3.3-1.77-1.02-0.813-1.867-1.877-2.54-3.19-0.68-1.32-1.02-2.933-1.02-4.84v0c0-1.9 0.34-3.507 1.02-4.82 0.673-1.313 1.52-2.38 2.54-3.2 1.013-0.82 2.113-1.413 3.3-1.78 1.193-0.367 2.3-0.55 3.32-0.55v0h21.61v6.35h-21.61c-1.2 0-2.14 0.367-2.82 1.1-0.673 0.733-1.01 1.7-1.01 2.9v0c0 1.22 0.337 2.183 1.01 2.89 0.68 0.713 1.62 1.07 2.82 1.07v0h14.6 0.05c0.687 0.013 1.413 0.107 2.18 0.28 0.76 0.167 1.52 0.43 2.28 0.79 0.753 0.36 1.473 0.813 2.16 1.36 0.68 0.54 1.287 1.193 1.82 1.96 0.527 0.767 0.947 1.647 1.26 2.64 0.307 0.993 0.46 2.117 0.46 3.37zM70.61-17.5v8.59c0 1.087-0.14 2.067-0.42 2.94-0.273 0.873-0.64 1.64-1.1 2.3-0.453 0.653-0.983 1.213-1.59 1.68-0.6 0.467-1.23 0.847-1.89 1.14-0.66 0.287-1.327 0.5-2 0.64-0.673 0.14-1.313 0.21-1.92 0.21v0h-11.45c-0.873 0-1.833-0.153-2.88-0.46-1.04-0.313-2.003-0.823-2.89-1.53-0.887-0.707-1.627-1.627-2.22-2.76-0.593-1.133-0.89-2.52-0.89-4.16v0-8.59c0-1.633 0.297-3.013 0.89-4.14 0.593-1.133 1.333-2.053 2.22-2.76 0.887-0.707 1.85-1.217 2.89-1.53 1.047-0.307 2.007-0.46 2.88-0.46v0h11.45c1.633 0 3.017 0.293 4.15 0.88 1.14 0.587 2.06 1.323 2.76 2.21 0.7 0.887 1.21 1.85 1.53 2.89 0.32 1.04 0.48 2.01 0.48 2.91zM64.26-8.91v-8.55c0-0.873-0.22-1.523-0.66-1.95-0.44-0.42-1.077-0.63-1.91-0.63v0h-11.4c-0.847 0-1.49 0.213-1.93 0.64-0.433 0.433-0.65 1.067-0.65 1.9v0 8.59c0 0.827 0.217 1.46 0.65 1.9 0.44 0.44 1.083 0.66 1.93 0.66v0h11.4c0.867 0 1.51-0.22 1.93-0.66 0.427-0.44 0.64-1.073 0.64-1.9zM99.37-26.39v6.35h-14.36v-6.35zM99.37-37.84v6.35h-14.31c-0.867 0-1.517 0.213-1.95 0.64-0.44 0.433-0.66 1.063-0.66 1.89v0 28.96h-6.35v-28.96c0-1.087 0.137-2.06 0.41-2.92 0.28-0.867 0.65-1.63 1.11-2.29 0.467-0.66 1-1.22 1.6-1.68 0.607-0.467 1.24-0.847 1.9-1.14 0.653-0.293 1.317-0.507 1.99-0.64 0.667-0.14 1.3-0.21 1.9-0.21v0zM127.51-26.39v6.35h-11.08v20.04h-6.42v-20.04h-8.25v-6.35h8.25v-8.62h6.42v8.62z" fill="#146c11" fill-rule="nonzero" stroke="none" stroke-width="1" stroke-linecap="butt" stroke-linejoin="miter" stroke-miterlimit="10" stroke-dasharray="" stroke-dashoffset="0" font-family="none" font-weight="none" font-size="none" text-anchor="none" style="mix-blend-mode: normal" data-fill-palette-color="secondary" opacity="1"></path></g></svg></g></svg></g></svg></g></svg></g><g transform="matrix(1,0,0,1,0,0.44293579970543817)"><svg viewBox="0 0 213.94634853697164 177.17431988217965" height="177.17431988217965" width="213.94634853697164"><g><svg xmlns="http://www.w3.org/2000/svg" version="1.1" data-icon="terminal" data-container-transform="translate(0 11)" viewBox="0 11 128 106" x="0" y="0" height="177.17431988217965" width="213.94634853697164" class="icon-icon-0" data-fill-palette-color="accent" id="icon-0"><path d="M1.5 11C0.7 11 0 11.7 0 12.5V115.5C0 116.3 0.7 117 1.5 117H126.5C127.3 117 128 116.3 128 115.5V12.5C128 11.7 127.3 11 126.5 11zM8.094 21L26 31V33L8 43V39L21 32 8 25zM30 39H56V43H30z" fill="#111111" data-fill-palette-color="accent"></path></svg></g></svg></g></svg></g><defs><clipPath id="SvgjsClipPath1032"><rect width="1000" height="1000" x="0" y="0" rx="350" ry="350"></rect></clipPath></defs></svg><rect width="395.52" height="107.41905228325152" fill="none" stroke="none" visibility="hidden"></rect></g></svg></g></svg></svg></g></g></svg></g></svg>